<svg width="1280" height="720" xmlns="http://www.w3.org/2000/svg" xmlns:xlink="http://www.w3.org/1999/xlink" overflow="hidden"><defs><filter id="fx0" x="-10%" y="-10%" width="120%" height="120%" filterUnits="userSpaceOnUse" primitiveUnits="userSpaceOnUse"><feComponentTransfer color-interpolation-filters="sRGB"><feFuncR type="discrete" tableValues="0 0"/><feFuncG type="discrete" tableValues="0.301961 0.301961"/><feFuncB type="discrete" tableValues="0.25098 0.25098"/><feFuncA type="linear" slope="0.501961" intercept="0"/></feComponentTransfer><feGaussianBlur stdDeviation="4.4574 4.44444"/></filter><filter id="fx1" x="-10%" y="-10%" width="120%" height="120%" filterUnits="userSpaceOnUse" primitiveUnits="userSpaceOnUse"><feComponentTransfer color-interpolation-filters="sRGB"><feFuncR type="discrete" tableValues="0.94902 0.94902"/><feFuncG type="discrete" tableValues="0.94902 0.94902"/><feFuncB type="discrete" tableValues="0.94902 0.94902"/><feFuncA type="linear" slope="0.4" intercept="0"/></feComponentTransfer><feGaussianBlur stdDeviation="6.66667 6.66667"/></filter><filter id="fx2" x="-10%" y="-10%" width="120%" height="120%" filterUnits="userSpaceOnUse" primitiveUnits="userSpaceOnUse"><feComponentTransfer color-interpolation-filters="sRGB"><feFuncR type="discrete" tableValues="0 0"/><feFuncG type="discrete" tableValues="0.301961 0.301961"/><feFuncB type="discrete" tableValues="0.25098 0.25098"/><feFuncA type="linear" slope="0.501961" intercept="0"/></feComponentTransfer><feGaussianBlur stdDeviation="4.4574 4.47171"/></filter><filter id="fx3" x="-10%" y="-10%" width="120%" height="120%" filterUnits="userSpaceOnUse" primitiveUnits="userSpaceOnUse"><feComponentTransfer color-interpolation-filters="sRGB"><feFuncR type="discrete" tableValues="0.94902 0.94902"/><feFuncG type="discrete" tableValues="0.94902 0.94902"/><feFuncB type="discrete" tableValues="0.94902 0.94902"/><feFuncA type="linear" slope="0.4" intercept="0"/></feComponentTransfer><feGaussianBlur stdDeviation="6.66667 6.66667"/></filter><clipPath id="clip4"><rect x="0" y="0" width="1280" height="720"/></clipPath><linearGradient x1="292" y1="-265" x2="987" y2="430" gradientUnits="userSpaceOnUse" spreadMethod="reflect" id="fill5"><stop offset="0" stop-color="#ADD8E6"/><stop offset="0.475" stop-color="#4169E1"/><stop offset="0.95" stop-color="#00008B"/><stop offset="1" stop-color="#00008B"/></linearGradient></defs><g clip-path="url(#clip4)"><rect x="0" y="0" width="1280" height="720" fill="#FFFFFF"/><path d="M32 75.3328C32 49.7439 52.7439 29 78.3327 29L1201.67 29C1227.26 29 1248 49.7439 1248 75.3328L1248 644.667C1248 670.256 1227.26 691 1201.67 691L78.3327 691C52.7439 691 32 670.256 32 644.667Z" fill="#F3F4F7" fill-rule="evenodd"/><path d="M11 38.1667C11 25.9244 20.9243 16 33.1666 16L1245.83 16C1258.08 16 1268 25.9244 1268 38.1667L1268 126.833C1268 139.076 1258.08 149 1245.83 149L33.1666 149C20.9243 149 11 139.076 11 126.833Z" fill="url(#fill5)" fill-rule="evenodd"/><g filter="url(#fx0)" transform="matrix(1.99419 0 0 2 715 -3)"><g transform="translate(-5.68434e-14 0)"><path d="M14.2737 22.8698C14.2737 17.9889 18.242 14.0322 23.1371 14.0322L149.153 14.0322C154.048 14.0322 158.017 17.9889 158.017 22.8698L158.017 58.2196C158.017 63.1005 154.048 67.0572 149.153 67.0572L23.1371 67.0572C18.242 67.0572 14.2737 63.1005 14.2737 58.2196Z" fill="#FFFFFF" fill-rule="evenodd"/></g></g><path d="M759 48.8335C759 39.5366 766.537 32 775.833 32L1015.17 32C1024.46 32 1032 39.5366 1032 48.8335L1032 116.166C1032 125.463 1024.46 133 1015.17 133L775.833 133C766.537 133 759 125.463 759 116.166Z" fill="#FFFFFF" fill-rule="evenodd"/><g filter="url(#fx1)" transform="translate(1044 7)"><g><path d="M21.286 38.1197C21.286 28.8227 28.8227 21.286 38.1197 21.286L166.452 21.286C175.749 21.286 183.286 28.8227 183.286 38.1197L183.286 105.452C183.286 114.749 175.749 122.286 166.452 122.286L38.1197 122.286C28.8227 122.286 21.286 114.749 21.286 105.452Z" fill="#FFFFFF" fill-rule="evenodd"/></g></g><path d="M1070 49.8337C1070 40.5367 1077.54 33 1086.83 33L1215.17 33C1224.46 33 1232 40.5367 1232 49.8337L1232 117.166C1232 126.463 1224.46 134 1215.17 134L1086.83 134C1077.54 134 1070 126.463 1070 117.166Z" fill="#FFFFFF" fill-rule="evenodd"/><g filter="url(#fx2)" transform="matrix(1.99419 0 0 1.9878 404 -4)"><g><path d="M14.2737 23.0731C14.2737 18.1136 18.2813 14.0931 23.2249 14.0931L149.065 14.0931C154.009 14.0931 158.017 18.1136 158.017 23.0731L158.017 58.9917C158.017 63.9512 154.009 67.9717 149.065 67.9717L23.2249 67.9717C18.2813 67.9717 14.2737 63.9512 14.2737 58.9917Z" fill="#FFFFFF" fill-rule="evenodd"/></g></g><path d="M448 48.0004C448 38.6114 455.611 31 465 31L704 31C713.389 31 721 38.6114 721 48.0004L721 116C721 125.389 713.389 133 704 133L465 133C455.611 133 448 125.389 448 116Z" fill="#FFFFFF" fill-rule="evenodd"/><g filter="url(#fx3)" transform="translate(222 8)"><g><path d="M21.2859 38.1197C21.2859 28.8227 28.8227 21.286 38.1197 21.286L166.452 21.286C175.749 21.286 183.286 28.8227 183.286 38.1197L183.286 105.452C183.286 114.749 175.749 122.286 166.452 122.286L38.1197 122.286C28.8227 122.286 21.2859 114.749 21.2859 105.452Z" fill="#FFFFFF" fill-rule="evenodd"/></g></g><path d="M248 50.8337C248 41.5367 255.537 34 264.834 34L393.166 34C402.463 34 410 41.5367 410 50.8337L410 118.166C410 127.463 402.463 135 393.166 135L264.834 135C255.537 135 248 127.463 248 118.166Z" fill="#FFFFFF" fill-rule="evenodd"/></g></svg>